<svg xmlns="http://www.w3.org/2000/svg" width="317.29" height="219.764" viewBox="0 0 317.29 219.764">
    <defs>
        <clipPath id="j3gr67yiba">
            <path data-name="Rectangle 30" style="fill:none" d="M0 0h317.29v151.572H0z"/>
        </clipPath>
        <clipPath id="slih98m1mb">
            <path data-name="Rectangle 22" style="fill:none" d="M0 0h102.376v24.5H0z"/>
        </clipPath>
    </defs>
    <g data-name="Apple Music Lockup-Small Mobile">
        <g data-name="Group 110" style="clip-path:url(#j3gr67yiba)" transform="translate(0 49.24)">
            <path data-name="Rectangle 34" transform="translate(18.423 7.533)" style="fill:#0044d0" d="M0 0h279.446v51.351H0z"/>
            <path data-name="Rectangle 35" transform="translate(238.986 124.613)" style="fill:#0044d0" d="M0 0h71.359v22.081H0z"/>
            <path data-name="Path 118" d="M418.129 201.363H415.6v4.673h2.526a2.339 2.339 0 1 0 0-4.673" transform="translate(-153.397 -70.631)" style="fill:#fff"/>
            <path data-name="Path 119" d="M435.461 185.225h-59.767c-8.267 0-14.971 7.011-14.971 15.659s6.7 15.659 14.971 15.659h59.767c8.268 0 14.97-7.011 14.97-15.659s-6.7-15.659-14.97-15.659M387.93 195.7h-8.248v3.843h7.04v4.645h-7.04v6.221H373.9v-19.352h14.03zm12.792 14.709s-.941-2.461-1.182-3.069c-.457-1.245-.887-2.6-2.794-2.6h-1.4v5.668h-5.8v-19.351h8.76c5.185 0 7.765 2.986 7.765 6.414a5.276 5.276 0 0 1-3.439 5.254c.726.414 1.639.664 3.117 4.534.161.387 1.209 3.152 1.209 3.152zm21.47 0h-14.429v-19.352h14.026v4.643h-8.249v2.82h6.314v4.313h-6.314v2.9h8.652zm16.177 0H423.94v-19.352h14.025v4.643h-8.249v2.82h6.314v4.313h-6.314v2.9h8.652z" transform="translate(-133.141 -64.971)" style="fill:#fff"/>
            <path data-name="Path 120" d="M284.234 0H33.056C14.8 0 0 15.48 0 34.576s14.8 34.575 33.056 34.575h251.178c18.257 0 33.056-15.48 33.056-34.576S302.491 0 284.234 0M64.978 36.174a28.692 28.692 0 0 1-1.168 8.088 20.748 20.748 0 0 1-3.63 7.114 18.261 18.261 0 0 1-6.313 5.035 20.5 20.5 0 0 1-9.217 1.917 20.265 20.265 0 0 1-8.934-1.852 18.463 18.463 0 0 1-6.344-4.937 20.636 20.636 0 0 1-3.757-7.081 27.973 27.973 0 0 1-1.231-8.284V11.812h13.637v27.026a11.1 11.1 0 0 0 .41 3.021 8.559 8.559 0 0 0 1.2 2.6 5.817 5.817 0 0 0 2.052 1.819 6.251 6.251 0 0 0 8.017-1.82 8.2 8.2 0 0 0 1.231-2.6 11.121 11.121 0 0 0 .41-3.021V11.812h13.637zm49.5 21.114H99.511L83.792 28.7v28.588h-12.5V11.812h16.666l13.952 25.337V11.812h12.563zm37.184 0h-30.875V11.812h13.637v34.5h17.234zm46.213-13.773a22.275 22.275 0 0 1-4.513 7.6 21.415 21.415 0 0 1-7.513 5.262 29.292 29.292 0 0 1-20.928.032 21.844 21.844 0 0 1-7.513-5.165 21.288 21.288 0 0 1-4.546-7.568 27.378 27.378 0 0 1-1.515-9.128 26.459 26.459 0 0 1 1.642-9.42 21.594 21.594 0 0 1 4.735-7.536 21.949 21.949 0 0 1 7.544-5 28.868 28.868 0 0 1 20.171 0 21.907 21.907 0 0 1 7.576 5 21.639 21.639 0 0 1 4.735 7.536 27.573 27.573 0 0 1 .126 18.386m47.024 6.173a17.04 17.04 0 0 1-3.441 3.671 22.645 22.645 0 0 1-14.931 4.97 26.846 26.846 0 0 1-10.165-1.819A21.042 21.042 0 0 1 204.153 44a26.665 26.665 0 0 1-1.61-9.388 26.935 26.935 0 0 1 1.61-9.42 21.8 21.8 0 0 1 4.672-7.569 21.319 21.319 0 0 1 7.544-5.035 26.859 26.859 0 0 1 10.165-1.819 24.239 24.239 0 0 1 7.924 1.17 23.929 23.929 0 0 1 5.777 2.825 18.928 18.928 0 0 1 3.851 3.411A15.784 15.784 0 0 1 246.1 21.1l-10.291 7.081a15.841 15.841 0 0 0-1.073-1.819 9.378 9.378 0 0 0-1.831-1.981 11.2 11.2 0 0 0-2.714-1.624 9.164 9.164 0 0 0-3.662-.682 8.868 8.868 0 0 0-4.229 1.007 9.247 9.247 0 0 0-3.157 2.729 13.2 13.2 0 0 0-1.957 3.995 16.351 16.351 0 0 0-.695 4.808 16.021 16.021 0 0 0 .695 4.775 12.826 12.826 0 0 0 1.957 3.93 9.012 9.012 0 0 0 7.386 3.638 9.8 9.8 0 0 0 4.23-.812 9.951 9.951 0 0 0 2.778-1.884 9.12 9.12 0 0 0 1.641-2.144q.569-1.071.758-1.526l10.418 6.822q-.317.52-1.452 2.274m31.881 7.6-11.045-17.345a18.947 18.947 0 0 1-1.7.975q-1.012.521-1.515.844v15.527h-13.641V11.812h13.637v16.371a48.539 48.539 0 0 0 5.208-3.963 44.321 44.321 0 0 0 4.229-4.22 37.087 37.087 0 0 0 3.22-4.256 30.829 30.829 0 0 0 2.179-3.93h14.71a48.4 48.4 0 0 1-6.282 11.239 51.976 51.976 0 0 1-9.881 10.07l17.741 24.168z" style="fill:#fff"/>
            <path data-name="Path 121" d="M36.892 154.72h-10.2l-2.143-6.135h-12.67l-2.1 6.135H0l11.784-33.552h13.37zm-22.544-13.756h7.825l-3.912-11.024z" transform="translate(-.001 -42.502)" style="fill:#fff"/>
            <path data-name="Path 122" d="M79.325 121.167a14.761 14.761 0 0 1 4.8.767 11.071 11.071 0 0 1 3.919 2.3 10.73 10.73 0 0 1 2.636 3.787 13.278 13.278 0 0 1 .956 5.224 13.752 13.752 0 0 1-.934 5.248 10.721 10.721 0 0 1-2.568 3.81 10.838 10.838 0 0 1-3.9 2.325 14.841 14.841 0 0 1-4.925.791h-6.345v9.3H62.9v-33.552zm-1.982 16.153a3.925 3.925 0 0 0 4.238-4.05 4.121 4.121 0 0 0-1.071-2.764 3.963 3.963 0 0 0-3.167-1.239h-4.379v8.052z" transform="translate(-23.217 -42.501)" style="fill:#fff"/>
            <path data-name="Path 123" d="M128.494 121.167a14.761 14.761 0 0 1 4.8.767 11.071 11.071 0 0 1 3.919 2.3 10.73 10.73 0 0 1 2.636 3.787 13.278 13.278 0 0 1 .956 5.224 13.751 13.751 0 0 1-.934 5.248 10.721 10.721 0 0 1-2.568 3.81 10.838 10.838 0 0 1-3.9 2.325 14.841 14.841 0 0 1-4.925.791h-6.351v9.3h-10.055v-33.552zm-1.983 16.153a3.925 3.925 0 0 0 4.238-4.05 4.121 4.121 0 0 0-1.071-2.764 3.963 3.963 0 0 0-3.167-1.239h-4.378v8.052z" transform="translate(-41.365 -42.501)" style="fill:#fff"/>
            <path data-name="Path 124" d="M184.017 146.619v8.1H161.24v-33.552h10.06v25.452z" transform="translate(-59.513 -42.501)" style="fill:#fff"/>
            <path data-name="Path 125" d="M226.831 146.619v8.1h-25.059v-33.552h24.361v8.1h-14.3v4.841h10.946v7.477h-10.946v5.033z" transform="translate(-74.473 -42.501)" style="fill:#fff"/>
            <path data-name="Path 126" d="M291.428 154.72v-22.433l-6.707 19.413h-6.242l-6.754-19.413v22.433h-9.269v-33.553h13.834l5.45 16.1 5.5-16.1h13.508v33.553z" transform="translate(-96.871 -42.501)" style="fill:#fff"/>
            <path data-name="Path 127" d="M344 155.486a14.948 14.948 0 0 1-6.591-1.366 13.624 13.624 0 0 1-4.681-3.643 15.238 15.238 0 0 1-2.772-5.224 20.633 20.633 0 0 1-.909-6.111v-17.975h10.061v19.94a8.182 8.182 0 0 0 .3 2.229 6.324 6.324 0 0 0 .885 1.917 4.3 4.3 0 0 0 1.514 1.342 4.611 4.611 0 0 0 5.915-1.342 6.052 6.052 0 0 0 .908-1.917 8.231 8.231 0 0 0 .3-2.229v-19.94H359v17.975a21.179 21.179 0 0 1-.862 5.967 15.322 15.322 0 0 1-2.678 5.249 13.489 13.489 0 0 1-4.658 3.714 15.128 15.128 0 0 1-6.8 1.414" transform="translate(-121.45 -42.501)" style="fill:#fff"/>
            <path data-name="Path 128" d="M399.6 134.413a13.976 13.976 0 0 1 3.8 1.342 11.5 11.5 0 0 1 2.911 2.181 9.535 9.535 0 0 1 1.886 2.852 8.582 8.582 0 0 1 .676 3.4 10.393 10.393 0 0 1-.838 4.122 9.4 9.4 0 0 1-2.608 3.475 13.06 13.06 0 0 1-4.519 2.4 21.515 21.515 0 0 1-6.567.887 20.3 20.3 0 0 1-11.319-3.12 15.883 15.883 0 0 1-2.911-2.333q-1.048-1.119-1.374-1.5l5.729-5.317a14.827 14.827 0 0 0 1.095 1.1 12.76 12.76 0 0 0 2.119 1.558 16.675 16.675 0 0 0 3.051 1.413 11.218 11.218 0 0 0 3.8.623 5.292 5.292 0 0 0 3-.768 2.336 2.336 0 0 0 1.141-2.017 2.41 2.41 0 0 0-.745-1.657 4.925 4.925 0 0 0-2.608-1.176q-.327-.1-1.188-.264t-1.84-.384q-.979-.215-1.886-.408t-1.281-.288a14.888 14.888 0 0 1-3.563-1.153 9.919 9.919 0 0 1-2.795-1.968 8.412 8.412 0 0 1-1.84-2.833 10.184 10.184 0 0 1-.652-3.793 10.051 10.051 0 0 1 .978-4.489 9.619 9.619 0 0 1 2.818-3.409 13.127 13.127 0 0 1 4.425-2.161 20.977 20.977 0 0 1 5.8-.744 18.8 18.8 0 0 1 10.224 2.756 13.971 13.971 0 0 1 2.632 2.061q.931.984 1.118 1.223l-5.683 5.369-1.234-.983a15.187 15.187 0 0 0-1.91-1.27 15 15 0 0 0-2.469-1.1 8.928 8.928 0 0 0-2.958-.48 4.2 4.2 0 0 0-2.818.767 2.41 2.41 0 0 0-.862 1.869 2.541 2.541 0 0 0 .768 1.774 4.844 4.844 0 0 0 2.539 1.2q.279.048 1.118.216t1.794.383q.953.216 1.84.384t1.211.264" transform="translate(-139.789 -42.087)" style="fill:#fff"/>
            <path data-name="Rectangle 29" transform="translate(271.876 78.666)" style="fill:#fff" d="M0 0h10.061v33.552H0z"/>
            <path data-name="Path 129" d="M451.675 137.577a19.869 19.869 0 0 1 1.188-6.95 16.082 16.082 0 0 1 3.447-5.584 15.733 15.733 0 0 1 5.566-3.715 19.812 19.812 0 0 1 7.5-1.342 17.885 17.885 0 0 1 5.846.863 17.616 17.616 0 0 1 4.262 2.085 13.961 13.961 0 0 1 2.842 2.516 11.618 11.618 0 0 1 1.49 2.157l-7.592 5.224a11.757 11.757 0 0 0-.792-1.342 6.919 6.919 0 0 0-1.351-1.462 8.262 8.262 0 0 0-2-1.2 6.769 6.769 0 0 0-2.7-.5 6.54 6.54 0 0 0-3.12.743 6.815 6.815 0 0 0-2.329 2.013 9.735 9.735 0 0 0-1.444 2.948 12.067 12.067 0 0 0-.512 3.547 11.825 11.825 0 0 0 .512 3.523 9.46 9.46 0 0 0 1.444 2.9 6.646 6.646 0 0 0 5.449 2.684 7.22 7.22 0 0 0 3.121-.6 7.3 7.3 0 0 0 2.049-1.39 6.735 6.735 0 0 0 1.211-1.582q.419-.791.559-1.126l7.679 5.032q-.234.385-1.071 1.678a12.557 12.557 0 0 1-2.538 2.708 16.712 16.712 0 0 1-11.016 3.667 19.812 19.812 0 0 1-7.5-1.342 15.525 15.525 0 0 1-9.012-9.227 19.667 19.667 0 0 1-1.188-6.926" transform="translate(-166.711 -42.087)" style="fill:#fff"/>
            <path data-name="Path 130" d="M266.594 32.694a1.191 1.191 0 0 1 1.874-1.007l17.986 12.893a1.248 1.248 0 0 1 0 2.014l-17.986 12.892a1.191 1.191 0 0 1-1.874-1.007z" transform="translate(-98.398 -11.037)" style="fill:#fff"/>
            <path data-name="Path 131" d="M18.3 207.258a8.049 8.049 0 0 1-.491 2.807 6.845 6.845 0 0 1-3.763 3.966 7.757 7.757 0 0 1-3.131.6 7.777 7.777 0 0 1-3.117-.6 6.715 6.715 0 0 1-3.746-3.931 8.141 8.141 0 0 1-.491-2.838v-15.085h2.808v14.274a5.555 5.555 0 0 0 1.231 3.882 4.294 4.294 0 0 0 3.331 1.346 4.17 4.17 0 0 0 3.373-1.409 5.731 5.731 0 0 0 1.19-3.819v-14.274H18.3z" transform="translate(-1.314 -67.409)" style="fill:#fff"/>
            <path data-name="Path 132" d="M36.858 206.913v7.212H34.05v-21.948h6.642a7.25 7.25 0 0 1 3.138.626 6.127 6.127 0 0 1 2.158 1.662 6.915 6.915 0 0 1 1.247 2.367 9.365 9.365 0 0 1 .406 2.744 9.1 9.1 0 0 1-.434 2.838 6.817 6.817 0 0 1-1.288 2.336 5.98 5.98 0 0 1-2.156 1.583 7.423 7.423 0 0 1-3.039.58zm7.975-7.337a5.067 5.067 0 0 0-.252-1.541 4.666 4.666 0 0 0-.758-1.448 3.809 3.809 0 0 0-1.291-1.058 4.073 4.073 0 0 0-1.882-.405h-3.79v8.842h3.79a4.01 4.01 0 0 0 1.91-.42 4.076 4.076 0 0 0 1.291-1.058 4.279 4.279 0 0 0 .744-1.417 5.1 5.1 0 0 0 .238-1.495" transform="translate(-12.568 -67.409)" style="fill:#fff"/>
            <path data-name="Path 133" d="M82.335 192.176v2.948h-5.728v19H73.8v-19h-5.7v-2.948z" transform="translate(-25.135 -67.409)" style="fill:#fff"/>
            <path data-name="Path 134" d="M110.669 202.91a13.722 13.722 0 0 1-.688 4.358 11.406 11.406 0 0 1-1.98 3.653 9.446 9.446 0 0 1-3.145 2.509 10.064 10.064 0 0 1-8.4.016 9.606 9.606 0 0 1-3.159-2.461 10.868 10.868 0 0 1-1.994-3.637 14.07 14.07 0 0 1-.688-4.437 13.809 13.809 0 0 1 .7-4.436 11.444 11.444 0 0 1 2.008-3.669 9.447 9.447 0 0 1 3.16-2.492 9.949 9.949 0 0 1 8.312 0 9.441 9.441 0 0 1 3.16 2.492 11.456 11.456 0 0 1 2.008 3.669 13.826 13.826 0 0 1 .7 4.436m-10.025-8.56a6.344 6.344 0 0 0-3.033.7 6.846 6.846 0 0 0-2.232 1.893 8.648 8.648 0 0 0-1.39 2.723 11.117 11.117 0 0 0 0 6.447 8.444 8.444 0 0 0 1.39 2.707 6.911 6.911 0 0 0 2.232 1.878 6.881 6.881 0 0 0 6.066 0 6.918 6.918 0 0 0 2.232-1.878 8.244 8.244 0 0 0 1.376-2.707 11.436 11.436 0 0 0 0-6.447 8.44 8.44 0 0 0-1.376-2.723 6.852 6.852 0 0 0-2.232-1.893 6.345 6.345 0 0 0-3.033-.7" transform="translate(-33.447 -67.138)" style="fill:#fff"/>
            <path data-name="Path 135" d="M135.894 209.558q.084.094.421.392a5.771 5.771 0 0 0 .9.626 6.483 6.483 0 0 0 1.376.58 6.178 6.178 0 0 0 1.825.251 3.983 3.983 0 0 0 2.822-1.03 3.609 3.609 0 0 0 1.109-2.779 4.729 4.729 0 0 0-.182-1.233 3.379 3.379 0 0 0-.632-1.234 3.445 3.445 0 0 0-1.235-.937 4.634 4.634 0 0 0-1.994-.375h-1.6v-2.571h1.348a3.255 3.255 0 0 0 3.595-3.355 4.071 4.071 0 0 0-.211-1.269 3.41 3.41 0 0 0-.632-1.145 3.191 3.191 0 0 0-1.067-.815 3.517 3.517 0 0 0-1.544-.314 4.464 4.464 0 0 0-1.5.235 4.887 4.887 0 0 0-1.138.565 5.361 5.361 0 0 0-.8.658q-.324.329-.463.486L134.6 194.1c.075-.1.248-.3.519-.6a6.486 6.486 0 0 1 1.1-.909 7.433 7.433 0 0 1 1.7-.831 7.891 7.891 0 0 1 5.125.141 5.438 5.438 0 0 1 3.089 3.292 6.97 6.97 0 0 1 .379 2.289 5.774 5.774 0 0 1-.266 1.771 6.054 6.054 0 0 1-.688 1.474 4.329 4.329 0 0 1-.969 1.066 3.2 3.2 0 0 1-1.137.58 4.16 4.16 0 0 1 1.264.533 4.747 4.747 0 0 1 1.221 1.082 5.88 5.88 0 0 1 .912 1.63 6.172 6.172 0 0 1 .365 2.211 7.517 7.517 0 0 1-.379 2.352 5.826 5.826 0 0 1-3.257 3.59 7.331 7.331 0 0 1-3.047.58 9.753 9.753 0 0 1-2.654-.317 8.293 8.293 0 0 1-1.853-.745 6.258 6.258 0 0 1-1.18-.84q-.434-.411-.6-.6z" transform="translate(-49.546 -67.138)" style="fill:#fff"/>
            <path data-name="Path 136" d="m180.142 210.2-6.066-14.329v18.249h-2.808v-21.944h4.078l6.045 14.11 6.018-14.11h4.021v21.949h-2.809v-18.249l-6.092 14.324z" transform="translate(-63.214 -67.409)" style="fill:#fff"/>
            <path data-name="Path 137" d="M228.572 202.91a13.722 13.722 0 0 1-.688 4.358 11.406 11.406 0 0 1-1.98 3.653 9.445 9.445 0 0 1-3.145 2.509 10.064 10.064 0 0 1-8.4.016 9.606 9.606 0 0 1-3.159-2.461 10.868 10.868 0 0 1-1.994-3.637 14.07 14.07 0 0 1-.688-4.437 13.809 13.809 0 0 1 .7-4.436 11.445 11.445 0 0 1 2.008-3.669 9.447 9.447 0 0 1 3.16-2.492 9.948 9.948 0 0 1 8.312 0 9.441 9.441 0 0 1 3.16 2.492 11.457 11.457 0 0 1 2.008 3.669 13.827 13.827 0 0 1 .7 4.436m-10.025-8.56a6.343 6.343 0 0 0-3.033.7 6.846 6.846 0 0 0-2.232 1.893 8.648 8.648 0 0 0-1.39 2.723 11.117 11.117 0 0 0 0 6.447 8.444 8.444 0 0 0 1.39 2.707 6.911 6.911 0 0 0 2.232 1.878 6.881 6.881 0 0 0 6.066 0 6.918 6.918 0 0 0 2.232-1.878 8.245 8.245 0 0 0 1.376-2.707 11.435 11.435 0 0 0 0-6.447 8.441 8.441 0 0 0-1.376-2.723 6.852 6.852 0 0 0-2.232-1.893 6.345 6.345 0 0 0-3.033-.7" transform="translate(-76.964 -67.138)" style="fill:#fff"/>
            <path data-name="Path 138" d="M260.833 192.176v21.948h-3.763l-8.621-17.276v17.276h-2.808v-21.948h3.594l8.789 17.59v-17.59z" transform="translate(-90.665 -67.409)" style="fill:#fff"/>
            <path data-name="Path 139" d="M287.518 192.176v2.948h-5.728v19h-2.808v-19h-5.7v-2.948z" transform="translate(-100.867 -67.409)" style="fill:#fff"/>
            <path data-name="Path 140" d="M314.134 192.176v21.948h-2.808v-9.939h-9.154v9.939h-2.809v-21.948h2.809v9.03h9.154v-9.03z" transform="translate(-110.493 -67.409)" style="fill:#fff"/>
            <path data-name="Path 141" d="M328.281 207.99c.074.105.267.345.576.721a7.55 7.55 0 0 0 1.235 1.16 8.813 8.813 0 0 0 1.839 1.066 5.855 5.855 0 0 0 2.387.47 5.69 5.69 0 0 0 3.328-.876 2.935 2.935 0 0 0 1.249-2.567 2.9 2.9 0 0 0-.941-2.16 6.107 6.107 0 0 0-2.991-1.346c-.112-.021-.29-.058-.533-.11s-.506-.1-.787-.156-.553-.11-.815-.172a6.048 6.048 0 0 0-.645-.125 7.547 7.547 0 0 1-1.994-.7 6.219 6.219 0 0 1-1.629-1.221 5.275 5.275 0 0 1-1.1-1.738 6.118 6.118 0 0 1-.393-2.253 7.593 7.593 0 0 1 .407-2.474 5.625 5.625 0 0 1 1.278-2.1 6.28 6.28 0 0 1 2.232-1.456 8.767 8.767 0 0 1 3.271-.547 10.069 10.069 0 0 1 3.2.438 8.482 8.482 0 0 1 2.12 1.019 5.747 5.747 0 0 1 1.263 1.145l.6.784-2.163 2.226c-.112-.146-.29-.366-.533-.658a5.675 5.675 0 0 0-2.485-1.678 6.528 6.528 0 0 0-2.2-.329 5.212 5.212 0 0 0-1.867.3 3.788 3.788 0 0 0-1.278.784 2.969 2.969 0 0 0-.73 1.066 3.008 3.008 0 0 0 .463 3.057 3.807 3.807 0 0 0 2.373 1.254c.15.021.355.063.618.125s.538.12.828.172.566.105.828.157.478.1.646.141a8.889 8.889 0 0 1 2.584.941 6.725 6.725 0 0 1 1.811 1.474 5.837 5.837 0 0 1 1.067 1.85 6.319 6.319 0 0 1 .351 2.1 7.433 7.433 0 0 1-.393 2.368 5.62 5.62 0 0 1-1.291 2.116 6.572 6.572 0 0 1-2.345 1.521 9.668 9.668 0 0 1-3.58.58 9.378 9.378 0 0 1-3.552-.6 10.226 10.226 0 0 1-2.429-1.347 7.179 7.179 0 0 1-1.418-1.389q-.464-.644-.547-.769z" transform="translate(-120.4 -67.138)" style="fill:#fff"/>
        </g>
        <path data-name="Path 142" d="m24.789 48.17-.689-2.139h-3.609L19.8 48.17h-1.23l2.925-8.92h1.651l2.912 8.92zm-2.482-7.652-1.453 4.344h2.886z" transform="translate(3.43 171.383)" style="fill:#fff"/>
        <path data-name="Path 143" d="M37.764 39.24v8.926h-1.591l-3.651-7.025v7.025H31.34V39.24h1.519l3.717 7.15v-7.15z" transform="translate(-.909 171.387)" style="fill:#fff"/>
        <path data-name="Path 144" d="M46.84 39.24a5.378 5.378 0 0 1 1.974.337 4.062 4.062 0 0 1 1.439.938 3.956 3.956 0 0 1 .878 1.413 5.131 5.131 0 0 1 .3 1.769 4.9 4.9 0 0 1-.324 1.829 3.923 3.923 0 0 1-.911 1.406 4.047 4.047 0 0 1-1.446.9 5.43 5.43 0 0 1-1.908.317H44.49V39.24zm3.347 4.47a4.036 4.036 0 0 0-.2-1.281 2.935 2.935 0 0 0-.594-1.037 2.8 2.8 0 0 0-1-.7A3.519 3.519 0 0 0 47 40.435h-1.322v6.523h1.327A3.5 3.5 0 0 0 48.4 46.7a2.845 2.845 0 0 0 .99-.693 2.962 2.962 0 0 0 .6-1.03 3.9 3.9 0 0 0 .2-1.268" transform="translate(-5.377 171.387)" style="fill:#fff"/>
        <path data-name="Path 145" d="m66.979 48.17-.687-2.139h-3.611l-.687 2.139H60.76l2.925-8.92h1.651l2.912 8.92zM64.5 40.518l-1.452 4.344h2.882z" transform="translate(-10.905 171.383)" style="fill:#fff"/>
        <path data-name="Path 146" d="M84.575 41.386a4.998 4.998 0 0 0-.218-.291 2.212 2.212 0 0 0-.456-.423 3.089 3.089 0 0 0-.739-.383 2.985 2.985 0 0 0-1.07-.165 2.8 2.8 0 0 0-1.287.284 2.917 2.917 0 0 0-.951.766 3.421 3.421 0 0 0-.581 1.109 4.337 4.337 0 0 0-.2 1.314 4.1 4.1 0 0 0 .2 1.307 3.3 3.3 0 0 0 .588 1.1 2.942 2.942 0 0 0 .944.759 2.752 2.752 0 0 0 1.281.284 3.074 3.074 0 0 0 1.076-.165 2.925 2.925 0 0 0 .746-.4 2.485 2.485 0 0 0 .482-.456c.119-.152.2-.271.264-.343l.951.753c-.04.059-.132.185-.271.376a3.077 3.077 0 0 1-.627.607 4.487 4.487 0 0 1-1.056.574 4.19 4.19 0 0 1-1.558.251 4.117 4.117 0 0 1-1.769-.37 3.95 3.95 0 0 1-1.334-1 4.414 4.414 0 0 1-.845-1.479 5.6 5.6 0 0 1-.291-1.8 5.5 5.5 0 0 1 .3-1.829 4.459 4.459 0 0 1 .852-1.486 4.016 4.016 0 0 1 1.334-1 4.1 4.1 0 0 1 1.76-.37 4.454 4.454 0 0 1 1.446.211 4.707 4.707 0 0 1 1.017.5 3.558 3.558 0 0 1 .647.561c.158.185.264.324.324.409z" transform="translate(-16.715 171.499)" style="fill:#fff"/>
        <path data-name="Path 147" d="M97.822 39.24v8.926h-1.188v-4.04h-3.876v4.041H91.57V39.24h1.188v3.671h3.876V39.24z" transform="translate(-21.373 171.387)" style="fill:#fff"/>
        <path data-name="Path 148" d="m108.679 48.17-.687-2.139h-3.611l-.687 2.139h-1.234l2.925-8.92h1.651l2.912 8.92zm-2.479-7.652-1.453 4.344h2.885z" transform="translate(-25.074 171.383)" style="fill:#fff"/>
        <path data-name="Path 149" d="M121.654 39.24v8.926h-1.591l-3.644-7.025v7.025h-1.189V39.24h1.519l3.717 7.15v-7.15z" transform="translate(-29.413 171.387)" style="fill:#fff"/>
        <path data-name="Path 150" d="M134.395 41.386a4.998 4.998 0 0 0-.218-.291 2.212 2.212 0 0 0-.456-.423 3.089 3.089 0 0 0-.739-.383 2.985 2.985 0 0 0-1.07-.165 2.8 2.8 0 0 0-1.287.284 2.916 2.916 0 0 0-.951.766 3.421 3.421 0 0 0-.581 1.109 4.336 4.336 0 0 0-.2 1.314 4.1 4.1 0 0 0 .2 1.307 3.3 3.3 0 0 0 .588 1.1 2.943 2.943 0 0 0 .944.759 2.752 2.752 0 0 0 1.281.284 3.049 3.049 0 0 0 1.076-.165 2.926 2.926 0 0 0 .746-.4 2.485 2.485 0 0 0 .482-.456c.119-.152.2-.271.264-.343l.951.753c-.04.059-.132.185-.271.376a3.076 3.076 0 0 1-.627.607 4.26 4.26 0 0 1-1.056.574 4.329 4.329 0 0 1-1.558.251 4.117 4.117 0 0 1-1.769-.37 3.951 3.951 0 0 1-1.334-1 4.414 4.414 0 0 1-.845-1.479 5.6 5.6 0 0 1-.29-1.8 5.505 5.505 0 0 1 .3-1.829 4.459 4.459 0 0 1 .852-1.486 4.016 4.016 0 0 1 1.334-1 4.1 4.1 0 0 1 1.756-.363 4.525 4.525 0 0 1 1.452.211 4.706 4.706 0 0 1 1.017.5 3.558 3.558 0 0 1 .647.561 3.737 3.737 0 0 1 .317.409z" transform="translate(-33.643 171.499)" style="fill:#fff"/>
        <path data-name="Path 151" d="M146.8 48.166h-5.41V39.24h5.189v1.2h-4v2.482h3.572v1.2h-3.572v2.839h4.221z" transform="translate(-38.301 171.387)" style="fill:#fff"/>
        <path data-name="Path 152" d="M161.551 39.24v1.2h-2.423v7.725h-1.188v-7.723h-2.41v-1.2z" transform="translate(-43.105 171.387)" style="fill:#fff"/>
        <path data-name="Path 153" d="M173.657 43.608a5.434 5.434 0 0 1-.291 1.769 4.563 4.563 0 0 1-.839 1.486 3.961 3.961 0 0 1-1.327 1.017 4.063 4.063 0 0 1-1.783.376 4.117 4.117 0 0 1-1.769-.37 3.95 3.95 0 0 1-1.334-1 4.414 4.414 0 0 1-.845-1.479 5.575 5.575 0 0 1-.29-1.8 5.377 5.377 0 0 1 .3-1.8 4.557 4.557 0 0 1 .852-1.492 4.053 4.053 0 0 1 1.334-1.017 4.356 4.356 0 0 1 3.512 0 3.9 3.9 0 0 1 1.334 1.017 4.557 4.557 0 0 1 .852 1.492 5.444 5.444 0 0 1 .3 1.809m-4.239-3.479a2.732 2.732 0 0 0-2.225 1.056 3.436 3.436 0 0 0-.588 1.109 4.309 4.309 0 0 0-.2 1.314 4.076 4.076 0 0 0 .2 1.307 3.4 3.4 0 0 0 .588 1.1 2.962 2.962 0 0 0 .944.766 3.031 3.031 0 0 0 2.562 0 2.875 2.875 0 0 0 .944-.766 3.323 3.323 0 0 0 .581-1.1 4.435 4.435 0 0 0 0-2.621 3.422 3.422 0 0 0-.581-1.109 2.9 2.9 0 0 0-.944-.772 2.752 2.752 0 0 0-1.281-.284" transform="translate(-46.384 171.496)" style="fill:#fff"/>
        <path data-name="Path 154" d="m194.842 39.24-2.034 8.926h-1.458l-1.855-6.615-1.842 6.615h-1.473l-2.04-8.926h1.2l1.631 7.1 1.981-7.1h1.122l1.967 7.1 1.644-7.1z" transform="translate(-52.826 171.387)" style="fill:#fff"/>
        <path data-name="Rectangle 31" transform="translate(143.204 210.627)" style="fill:#fff" d="M0 0h1.188v8.92H0z"/>
        <path data-name="Path 155" d="M213.794 39.24v8.926H212.2l-3.651-7.025v7.025h-1.179V39.24h1.519l3.717 7.15v-7.15z" transform="translate(-60.719 171.387)" style="fill:#fff"/>
        <path data-name="Path 156" d="M231.191 46.007v2.159H224.8V39.24h6.213v2.16h-3.644v1.287h2.786v1.987h-2.786v1.334z" transform="translate(-66.641 171.387)" style="fill:#fff"/>
        <path data-name="Path 157" d="M240.356 39.24a3.578 3.578 0 0 1 1.228.2 2.705 2.705 0 0 1 1 .607 2.885 2.885 0 0 1 .673 1.01 3.61 3.61 0 0 1 .244 1.386 3.84 3.84 0 0 1-.238 1.4 2.844 2.844 0 0 1-.654 1.01 2.8 2.8 0 0 1-1 .621 3.678 3.678 0 0 1-1.254.211h-1.618v2.475h-2.567v-8.92zm-.5 4.3a1 1 0 0 0 .8-.317 1.153 1.153 0 0 0 .007-1.492.993.993 0 0 0-.805-.33h-1.116v2.139z" transform="translate(-70.505 171.387)" style="fill:#fff"/>
        <path data-name="Rectangle 32" transform="translate(174.05 210.627)" style="fill:#fff" d="M0 0h2.568v8.92H0z"/>
        <path data-name="Path 158" d="M254.47 43.611a5.43 5.43 0 0 1 .3-1.849 4.407 4.407 0 0 1 .878-1.486 3.984 3.984 0 0 1 1.42-.99 4.877 4.877 0 0 1 1.915-.357 4.325 4.325 0 0 1 2.582.786 3.8 3.8 0 0 1 .726.667 3.16 3.16 0 0 1 .383.574l-1.934 1.386a3.571 3.571 0 0 0-.2-.357 1.864 1.864 0 0 0-.343-.39 1.953 1.953 0 0 0-.508-.317 1.772 1.772 0 0 0-1.486.066 1.774 1.774 0 0 0-.594.535 2.617 2.617 0 0 0-.37.786 3.4 3.4 0 0 0-.132.944 3.316 3.316 0 0 0 .132.938 2.617 2.617 0 0 0 .37.772 1.678 1.678 0 0 0 1.393.713 1.764 1.764 0 0 0 .792-.158 1.881 1.881 0 0 0 .522-.37 1.774 1.774 0 0 0 .31-.423c.073-.139.119-.238.145-.3l1.961 1.34-.271.449a3.287 3.287 0 0 1-.647.72 4.393 4.393 0 0 1-1.122.673 4.268 4.268 0 0 1-1.684.3 4.877 4.877 0 0 1-1.915-.357 4.053 4.053 0 0 1-1.42-.984 4.284 4.284 0 0 1-.878-1.472 4.832 4.832 0 0 1-.33-1.842" transform="translate(-76.722 171.492)" style="fill:#fff"/>
        <path data-name="Path 159" d="M276.775 42.783a3.466 3.466 0 0 1 .971.357 2.828 2.828 0 0 1 .739.581 2.606 2.606 0 0 1 .482.759 2.4 2.4 0 0 1 .172.9 2.942 2.942 0 0 1-.211 1.1 2.508 2.508 0 0 1-.667.924 3.426 3.426 0 0 1-1.149.64 5.238 5.238 0 0 1-1.677.238 5.164 5.164 0 0 1-1.7-.251 5.542 5.542 0 0 1-1.188-.574 4.177 4.177 0 0 1-.739-.621c-.178-.2-.3-.33-.35-.4l1.459-1.413a3.064 3.064 0 0 0 .277.291 3.288 3.288 0 0 0 .541.416 4.508 4.508 0 0 0 .779.376 2.724 2.724 0 0 0 .971.165 1.283 1.283 0 0 0 .766-.2.637.637 0 0 0 .29-.535.677.677 0 0 0-.191-.442 1.232 1.232 0 0 0-.667-.31c-.053-.02-.158-.04-.3-.073s-.3-.066-.469-.106-.323-.073-.482-.106-.264-.059-.323-.079a3.888 3.888 0 0 1-.911-.3 2.684 2.684 0 0 1-.713-.522 2.2 2.2 0 0 1-.469-.753 3.06 3.06 0 0 1 .086-2.205 2.5 2.5 0 0 1 .72-.9 3.253 3.253 0 0 1 1.129-.574 5.14 5.14 0 0 1 1.479-.2 4.584 4.584 0 0 1 1.525.224 5.027 5.027 0 0 1 1.083.508 3.674 3.674 0 0 1 .673.548c.158.172.251.284.284.324l-1.446 1.426a14.28 14.28 0 0 1-.317-.264 4.468 4.468 0 0 0-.489-.337 3.674 3.674 0 0 0-.627-.291 2.17 2.17 0 0 0-.753-.125 1.03 1.03 0 0 0-.72.2.663.663 0 0 0-.02.964 1.19 1.19 0 0 0 .647.317c.046.007.145.026.284.059s.3.066.456.1.317.073.469.1a1.59 1.59 0 0 1 .3.066" transform="translate(-82.495 171.482)" style="fill:#fff"/>
        <path data-name="Path 160" d="M288.346 48.374a3.676 3.676 0 0 1-1.684-.363 3.521 3.521 0 0 1-1.2-.971 4.054 4.054 0 0 1-.706-1.386 5.781 5.781 0 0 1-.231-1.624v-4.78h2.575v5.3a2.225 2.225 0 0 0 .079.594 1.7 1.7 0 0 0 .224.508 1.236 1.236 0 0 0 .383.357 1.087 1.087 0 0 0 .561.132 1.156 1.156 0 0 0 .561-.132 1.19 1.19 0 0 0 .39-.357 1.624 1.624 0 0 0 .231-.508 2.225 2.225 0 0 0 .079-.594v-5.3h2.568v4.78a5.88 5.88 0 0 1-.218 1.585 4.154 4.154 0 0 1-.68 1.393 3.487 3.487 0 0 1-1.188.99 3.791 3.791 0 0 1-1.743.376" transform="translate(-86.936 171.383)" style="fill:#fff"/>
        <path data-name="Path 161" d="M305.828 48.166V42.2l-1.71 5.163h-1.591L300.8 42.2v5.968h-2.36V39.24h3.526l1.393 4.285 1.4-4.285h3.441v8.926z" transform="translate(-91.662 171.387)" style="fill:#fff"/>
        <path data-name="Path 162" d="M322.958 48.166V42.2l-1.71 5.163h-1.591l-1.723-5.163v5.968h-2.364V39.24h3.53l1.386 4.285 1.406-4.285h3.44v8.926z" transform="translate(-97.483 171.387)" style="fill:#fff"/>
        <path data-name="Path 163" d="M339.081 46.007v2.159h-6.391V39.24h6.21v2.16h-3.644v1.287h2.793v1.987h-2.793v1.334z" transform="translate(-103.299 171.387)" style="fill:#fff"/>
        <path data-name="Path 164" d="M349.86 44.621q.119.079.257.158a1.433 1.433 0 0 1 .31.284 2.855 2.855 0 0 1 .37.588 9.886 9.886 0 0 1 .442 1.056c.013.04.053.139.112.3s.119.324.185.489l.238.66h-2.753l-.224-.6c-.072-.191-.125-.343-.178-.489s-.092-.257-.119-.324c-.046-.145-.1-.284-.152-.429a1.371 1.371 0 0 0-.218-.383 1.054 1.054 0 0 0-.337-.277 1.094 1.094 0 0 0-.522-.106h-.614v2.612h-2.567v-8.92h3.876a4.235 4.235 0 0 1 1.505.244 3.192 3.192 0 0 1 1.076.64 2.584 2.584 0 0 1 .64.938 3.1 3.1 0 0 1 .213 1.138 2.787 2.787 0 0 1-.191 1.083 2.612 2.612 0 0 1-.449.733 2.048 2.048 0 0 1-.5.429 3.09 3.09 0 0 1-.4.178m-2.106-1.083a1.02 1.02 0 0 0 .8-.317 1.132 1.132 0 0 0 .007-1.492 1 1 0 0 0-.8-.33h-1.116v2.139z" transform="translate(-107.173 171.387)" style="fill:#fff"/>
        <path data-name="Path 165" d="M365.486 39.24a3.578 3.578 0 0 1 1.228.2 2.705 2.705 0 0 1 1 .607 2.884 2.884 0 0 1 .673 1.01 3.61 3.61 0 0 1 .244 1.386 3.84 3.84 0 0 1-.238 1.4 2.843 2.843 0 0 1-.654 1.01 2.8 2.8 0 0 1-1 .621 3.678 3.678 0 0 1-1.254.211h-1.618v2.475H361.3v-8.92zm-.5 4.3a1 1 0 0 0 .8-.317 1.153 1.153 0 0 0 .007-1.492.994.994 0 0 0-.806-.33h-1.116v2.139z" transform="translate(-113.02 171.387)" style="fill:#fff"/>
        <path data-name="Path 166" d="M379.61 44.621q.119.079.258.158a1.434 1.434 0 0 1 .31.284 2.853 2.853 0 0 1 .37.588 9.892 9.892 0 0 1 .442 1.056c.013.04.053.139.112.3s.119.324.185.489l.238.66h-2.753l-.224-.6c-.072-.191-.125-.343-.178-.489s-.092-.257-.119-.324c-.046-.145-.1-.284-.152-.429a1.372 1.372 0 0 0-.218-.383 1.054 1.054 0 0 0-.337-.277 1.094 1.094 0 0 0-.522-.106h-.614v2.612h-2.568v-8.92h3.875a4.235 4.235 0 0 1 1.505.244 3.193 3.193 0 0 1 1.076.64 2.584 2.584 0 0 1 .64.938 2.968 2.968 0 0 1 .211 1.136 2.673 2.673 0 0 1-.634 1.816 1.956 1.956 0 0 1-.508.429 2.722 2.722 0 0 1-.4.178m-2.1-1.083a1.02 1.02 0 0 0 .8-.317 1.132 1.132 0 0 0 .007-1.492 1 1 0 0 0-.8-.33H376.4v2.139z" transform="translate(-117.281 171.387)" style="fill:#fff"/>
        <path data-name="Rectangle 33" transform="translate(264.957 210.627)" style="fill:#fff" d="M0 0h2.568v8.92H0z"/>
        <path data-name="Path 167" d="M399.252 48.166h-7.012v-2.773l3.565-3.994h-3.314V39.24h6.464v2.56l-3.743 4.212h4.041z" transform="translate(-123.533 171.387)" style="fill:#fff"/>
        <path data-name="Path 168" d="M411.051 46.007v2.159h-6.391V39.24h6.213v2.16h-3.644v1.287h2.786v1.987h-2.786v1.334z" transform="translate(-127.753 171.387)" style="fill:#fff"/>
        <path data-name="Path 169" d="M420.635 42.783a3.467 3.467 0 0 1 .971.357 2.828 2.828 0 0 1 .739.581 2.6 2.6 0 0 1 .482.759 2.4 2.4 0 0 1 .172.9 2.943 2.943 0 0 1-.211 1.1 2.509 2.509 0 0 1-.667.924 3.427 3.427 0 0 1-1.149.64 5.947 5.947 0 0 1-3.374-.013 5.542 5.542 0 0 1-1.188-.574 4.175 4.175 0 0 1-.739-.621c-.178-.2-.3-.33-.35-.4l1.459-1.413a3.064 3.064 0 0 0 .277.291 3.291 3.291 0 0 0 .541.416 4.285 4.285 0 0 0 .779.376 2.724 2.724 0 0 0 .971.165 1.283 1.283 0 0 0 .766-.2.637.637 0 0 0 .291-.535.677.677 0 0 0-.191-.442 1.233 1.233 0 0 0-.667-.31c-.053-.02-.158-.04-.3-.073s-.3-.066-.469-.106-.323-.073-.482-.106-.264-.059-.324-.079a3.888 3.888 0 0 1-.911-.3 2.683 2.683 0 0 1-.713-.522 2.2 2.2 0 0 1-.469-.753 3.06 3.06 0 0 1 .086-2.205 2.5 2.5 0 0 1 .72-.9 3.252 3.252 0 0 1 1.129-.574 5.14 5.14 0 0 1 1.479-.2 4.584 4.584 0 0 1 1.525.224 5.026 5.026 0 0 1 1.083.508 3.673 3.673 0 0 1 .673.548c.158.172.251.284.284.324l-1.458 1.42a14.28 14.28 0 0 1-.317-.264 4.471 4.471 0 0 0-.489-.337 3.676 3.676 0 0 0-.627-.291 2.145 2.145 0 0 0-.753-.125 1.031 1.031 0 0 0-.72.2.663.663 0 0 0-.02.964 1.19 1.19 0 0 0 .647.317c.046.007.145.026.284.059s.3.066.456.1.317.073.469.1a1.564 1.564 0 0 1 .3.066" transform="translate(-131.375 171.482)" style="fill:#fff"/>
        <path data-name="Path 170" d="M429.955 48.3a1.127 1.127 0 0 1-.469-.1 1.311 1.311 0 0 1-.39-.264 1.231 1.231 0 0 1-.264-.39 1.143 1.143 0 0 1-.092-.469 1.227 1.227 0 0 1 .746-1.129 1.127 1.127 0 0 1 .469-.1 1.18 1.18 0 0 1 .475.1 1.161 1.161 0 0 1 .389.264 1.232 1.232 0 0 1 .264.39 1.152 1.152 0 0 1 .092.475 1.288 1.288 0 0 1-.092.469 1.249 1.249 0 0 1-.654.654 1.135 1.135 0 0 1-.475.1m1.169-2.958h-2.3V39.24h2.3z" transform="translate(-135.935 171.387)" style="fill:#fff"/>
        <g data-name="Apple Music">
            <g data-name="Group 101" style="clip-path:url(#slih98m1mb)" transform="translate(107.812)">
                <path data-name="Path 58" d="M24.522 3.907A5.521 5.521 0 0 0 25.769 0a5.361 5.361 0 0 0-3.564 1.864 5.167 5.167 0 0 0-1.277 3.755 4.466 4.466 0 0 0 3.594-1.712" transform="translate(-11.171)" style="fill:#fff"/>
                <path data-name="Path 59" d="M14.584 12.506c-1.985-.12-3.672 1.139-4.62 1.139s-2.4-1.079-3.97-1.049a5.845 5.845 0 0 0-4.976 3.056C-1.115 19.367.455 24.879 2.529 27.9c1.007 1.5 2.221 3.146 3.82 3.087 1.511-.06 2.1-.989 3.94-.989s2.369.989 3.969.96c1.659-.03 2.7-1.5 3.7-3a13.353 13.353 0 0 0 1.658-3.446 5.433 5.433 0 0 1-3.228-4.944A5.55 5.55 0 0 1 19 14.932a5.653 5.653 0 0 0-4.413-2.426" transform="translate(0 -6.616)" style="fill:#fff"/>
                <path data-name="Path 60" d="M69.881 26.116V9.576h-.108l-6.7 16.541h-2.56L53.8 9.576h-.108v16.54h-3.147V3.641h3.99l7.195 17.911h.123l7.18-17.911h4.005v22.475z" transform="translate(-27.016 -1.928)" style="fill:#fff"/>
                <path data-name="Path 61" d="M120.151 32.967h-3.189v-2.772h-.077a5.078 5.078 0 0 1-5.023 3.068c-3.528 0-5.685-2.321-5.685-6.074V16.582h3.323v9.952c0 2.492 1.171 3.831 3.467 3.831 2.4 0 3.852-1.682 3.852-4.236v-9.547h3.327z" transform="translate(-56.751 -8.779)" style="fill:#fff"/>
                <path data-name="Path 62" d="M148.128 15.953c3.775 0 6.224 2.118 6.333 5.14h-3.128a2.891 2.891 0 0 0-3.2-2.585c-1.8 0-3 .888-3 2.2 0 1.028.74 1.729 2.5 2.134l2.634.608c3.313.779 4.576 2.087 4.576 4.454 0 2.991-2.758 5.047-6.579 5.047-4.052 0-6.486-2.009-6.795-5.124h3.3c.308 1.713 1.464 2.554 3.5 2.554 2 0 3.235-.841 3.235-2.18 0-1.059-.6-1.682-2.373-2.088l-2.634-.623c-3.082-.717-4.607-2.212-4.607-4.595 0-2.928 2.527-4.937 6.255-4.937" transform="translate(-75.608 -8.446)" style="fill:#fff"/>
                <path data-name="Path 63" d="M175.147 5.21a1.918 1.918 0 1 1 1.926 1.931 1.923 1.923 0 0 1-1.926-1.931m.262 4.329h3.327v16.385h-3.327z" transform="translate(-93.615 -1.736)" style="fill:#fff"/>
                <path data-name="Path 64" d="M199.879 21.888a3.688 3.688 0 0 0-3.805-3.131c-2.573 0-4.268 2.165-4.268 5.685 0 3.6 1.71 5.685 4.3 5.685a3.573 3.573 0 0 0 3.774-3.037h3.205c-.355 3.488-3.113 5.856-7.01 5.856-4.637 0-7.657-3.208-7.657-8.5 0-5.2 3.02-8.488 7.626-8.488 4.176 0 6.717 2.71 7.01 5.934z" transform="translate(-100.707 -8.446)" style="fill:#fff"/>
            </g>
        </g>
    </g>
</svg>
